<svg xmlns="http://www.w3.org/2000/svg" xmlns:xlink="http://www.w3.org/1999/xlink" width="64" height="64" viewBox="0 0 64 64"><defs><linearGradient id="a"><stop offset="0" stop-color="#000092"/><stop offset="1" stop-color="#ff00f3"/></linearGradient><linearGradient id="b" x1="2" x2="57" y1="32" y2="32" gradientUnits="userSpaceOnUse" xlink:href="#a"/></defs><path fill="url(#b)" d="M 24.5 12 C 23.6775 12 23 12.6775 23 13.5 C 23 14.146837 23.420973 14.697767 24 14.90625 L 24 17.207031 L 29 22.207031 L 29 28 L 25 28 L 25 22.792969 L 23.207031 21 L 20.90625 21 C 20.697767 20.420973 20.146837 20 19.5 20 C 18.6775 20 18 20.6775 18 21.5 C 18 22.3225 18.6775 23 19.5 23 C 20.146837 23 20.697767 22.579027 20.90625 22 L 22.792969 22 L 24 23.207031 L 24 28 L 17.5 28 C 16.664893 28 16 28.712228 16 29.548828 L 16 31 L 11.207031 31 L 10 29.792969 L 10 28.90625 C 10.579027 28.697767 11 28.146837 11 27.5 C 11 26.6775 10.3225 26 9.5 26 C 8.6775 26 8 26.6775 8 27.5 C 8 28.146837 8.4209732 28.697767 9 28.90625 L 9 30.207031 L 10.792969 32 L 16 32 L 16 35 L 10.207031 35 L 7.2070312 32 L 4.90625 32 C 4.6977667 31.420973 4.1468366 31 3.5 31 C 2.6775 31 2 31.6775 2 32.5 C 2 33.3225 2.6775 34 3.5 34 C 4.1468366 34 4.6977667 33.579027 4.90625 33 L 6.7929688 33 L 9.7929688 36 L 16 36 L 16 39 L 9.7929688 39 L 6.7929688 42 L 4.90625 42 C 4.6977667 41.420973 4.1468366 41 3.5 41 C 2.6775 41 2 41.6775 2 42.5 C 2 43.3225 2.6775 44 3.5 44 C 4.1468366 44 4.6977667 43.579027 4.90625 43 L 7.2070312 43 L 10.207031 40 L 16 40 L 16 43 L 10.792969 43 L 9 44.792969 L 9 46.09375 C 8.4209732 46.302233 8 46.853163 8 47.5 C 8 48.3225 8.6775 49 9.5 49 C 10.3225 49 11 48.3225 11 47.5 C 11 46.853163 10.579027 46.302233 10 46.09375 L 10 45.207031 L 11.207031 44 L 16 44 L 16 47 L 13.5 47 A 0.50005 0.50005 0 0 0 13 47.5 L 13 48.833984 C 13 50.564384 14.336345 52 16.013672 52 L 46.994141 52 C 48.671547 52 50.007812 50.564384 50.007812 48.833984 L 50.007812 47.5 A 0.50005 0.50005 0 0 0 49.507812 47 L 47 47 L 47 44 L 51.792969 44 L 53 45.207031 L 53 46.09375 C 52.420973 46.302233 52 46.853163 52 47.5 C 52 48.3225 52.6775 49 53.5 49 C 54.3225 49 55 48.3225 55 47.5 C 55 46.853163 54.579027 46.302233 54 46.09375 L 54 44.792969 L 52.207031 43 L 47 43 L 47 40 L 52.792969 40 L 55.792969 43 L 58.09375 43 C 58.302233 43.579027 58.853163 44 59.5 44 C 60.3225 44 61 43.3225 61 42.5 C 61 41.6775 60.3225 41 59.5 41 C 58.853163 41 58.302233 41.420973 58.09375 42 L 56.207031 42 L 53.207031 39 L 47 39 L 47 36 L 53.207031 36 L 56.207031 33 L 58.09375 33 C 58.302233 33.579027 58.853163 34 59.5 34 C 60.3225 34 61 33.3225 61 32.5 C 61 31.6775 60.3225 31 59.5 31 C 58.853163 31 58.302233 31.420973 58.09375 32 L 55.792969 32 L 52.792969 35 L 47 35 L 47 32 L 52.207031 32 L 54 30.207031 L 54 28.90625 C 54.579027 28.697767 55 28.146837 55 27.5 C 55 26.6775 54.3225 26 53.5 26 C 52.6775 26 52 26.6775 52 27.5 C 52 28.146837 52.420973 28.697767 53 28.90625 L 53 29.792969 L 51.792969 31 L 47 31 L 47 29.548828 C 47 28.712228 46.335107 28 45.5 28 L 39 28 L 39 23.207031 L 40.207031 22 L 42.09375 22 C 42.302233 22.579027 42.853163 23 43.5 23 C 44.3225 23 45 22.3225 45 21.5 C 45 20.6775 44.3225 20 43.5 20 C 42.853163 20 42.302233 20.420973 42.09375 21 L 39.792969 21 L 38 22.792969 L 38 28 L 35 28 L 35 22.207031 L 40 17.207031 L 40 14.90625 C 40.579027 14.697767 41 14.146837 41 13.5 C 41 12.6775 40.3225 12 39.5 12 C 38.6775 12 38 12.6775 38 13.5 C 38 14.146837 38.420973 14.697767 39 14.90625 L 39 16.792969 L 34 21.792969 L 34 28 L 30 28 L 30 21.792969 L 25 16.792969 L 25 14.90625 C 25.579027 14.697767 26 14.146837 26 13.5 C 26 12.6775 25.3225 12 24.5 12 z M 24.5 13 C 24.7821 13 25 13.218 25 13.5 C 25 13.7821 24.7821 14 24.5 14 C 24.2179 14 24 13.7821 24 13.5 C 24 13.218 24.2179 13 24.5 13 z M 39.5 13 C 39.7821 13 40 13.218 40 13.5 C 40 13.7821 39.7821 14 39.5 14 C 39.2179 14 39 13.7821 39 13.5 C 39 13.218 39.2179 13 39.5 13 z M 19.5 21 C 19.7821 21 20 21.218 20 21.5 C 20 21.7821 19.7821 22 19.5 22 C 19.2179 22 19 21.7821 19 21.5 C 19 21.218 19.2179 21 19.5 21 z M 43.5 21 C 43.7821 21 44 21.218 44 21.5 C 44 21.7821 43.7821 22 43.5 22 C 43.2179 22 43 21.7821 43 21.5 C 43 21.218 43.2179 21 43.5 21 z M 9.5 27 C 9.7821 27 10 27.218 10 27.5 C 10 27.7821 9.7821 28 9.5 28 C 9.2179 28 9 27.7821 9 27.5 C 9 27.218 9.2179 27 9.5 27 z M 53.5 27 C 53.7821 27 54 27.218 54 27.5 C 54 27.7821 53.7821 28 53.5 28 C 53.2179 28 53 27.7821 53 27.5 C 53 27.218 53.2179 27 53.5 27 z M 17.5 29 L 45.5 29 C 45.772893 29 46 29.224528 46 29.548828 L 46 31 L 46 32 L 46 43 L 46 44 L 46 47 L 17 47 L 17 29.548828 C 17 29.224528 17.227107 29 17.5 29 z M 19.5 31 A 0.50004994 0.50004994 0 0 0 19 31.5 L 19 44.5 A 0.50004994 0.50004994 0 0 0 19.5 45 L 27.625 45 C 27.3864 44.7092 27.208722 44.3716 27.107422 44 L 20 44 L 20 32 L 26.839844 32 C 27.203744 31.6197 27.610441 31.283 28.056641 31 L 19.5 31 z M 31.5 31 C 28.669676 31 26.366035 33.143225 26.060547 35.890625 L 26 36.392578 L 26 36.5 L 26 39.277344 C 26 40.524901 26.85184 41.569014 28 41.888672 L 28 43.300781 C 28 44.233981 28.766067 45 29.699219 45 L 33.300781 45 C 34.233933 45 35 44.233981 35 43.300781 L 35 41.888672 C 36.14816 41.569476 37 40.526937 37 39.279297 L 37 36.5 L 37 36.394531 L 36.941406 35.890625 C 36.634096 33.145225 34.329008 31.003906 31.5 31.003906 L 31.5 31 z M 34.751953 31 C 35.232653 31.276 35.665794 31.6176 36.058594 32 L 43 32 L 43 44 L 35.898438 44 C 35.797137 44.3718 35.617706 44.7091 35.378906 45 L 43.5 45 A 0.50004994 0.50004994 0 0 0 44 44.5 L 44 31.5 A 0.50004994 0.50004994 0 0 0 43.5 31 L 34.751953 31 z M 3.5 32 C 3.7821 32 4 32.218 4 32.5 C 4 32.7821 3.7821 33 3.5 33 C 3.2179 33 3 32.7821 3 32.5 C 3 32.218 3.2179 32 3.5 32 z M 31.5 32 C 33.828476 32 35.69606 33.7417 35.947266 36 L 36 36.453125 L 36 36.5 L 36 39.279297 C 36 40.168809 35.348187 40.874876 34.490234 40.978516 L 34 40.978516 L 34 43.300781 C 34 43.697281 33.69723 44 33.300781 44 L 33 44 L 33 42 L 32 42 L 32 44 L 31 44 L 31 42 L 30 42 L 30 44 L 29.699219 44 C 29.30277 44 29 43.697281 29 43.300781 L 29 40.978516 L 28.509766 40.978516 C 27.651813 40.874617 27 40.166763 27 39.277344 L 27 36.5 L 27 36.449219 L 27.052734 36 L 27.054688 36 C 27.305799 33.7417 29.171524 32 31.5 32 z M 59.5 32 C 59.7821 32 60 32.218 60 32.5 C 60 32.7821 59.7821 33 59.5 33 C 59.2179 33 59 32.7821 59 32.5 C 59 32.218 59.2179 32 59.5 32 z M 29.017578 35.130859 A 0.50005 0.50005 0 0 0 28.75 35.201172 C 28.225829 35.503872 27.932713 36.095313 28.011719 36.695312 C 28.090729 37.295413 28.526697 37.792619 29.111328 37.949219 C 29.69596 38.105919 30.322943 37.893963 30.691406 37.414062 C 31.05986 36.933863 31.101458 36.2741 30.798828 35.75 A 0.50005 0.50005 0 1 0 29.933594 36.25 C 30.035429 36.4264 30.022427 36.643188 29.898438 36.804688 C 29.774456 36.966287 29.567824 37.035122 29.371094 36.982422 C 29.174368 36.929422 29.030493 36.768306 29.003906 36.566406 C 28.977326 36.364406 29.07362 36.168206 29.25 36.066406 A 0.50005 0.50005 0 0 0 29.017578 35.130859 z M 33.976562 35.130859 A 0.50005 0.50005 0 0 0 33.75 36.066406 C 33.926381 36.168306 34.022674 36.362453 33.996094 36.564453 C 33.969507 36.766353 33.825632 36.929422 33.628906 36.982422 C 33.432176 37.035122 33.227506 36.966287 33.103516 36.804688 C 32.979536 36.643088 32.964571 36.4264 33.066406 36.25 A 0.50005 0.50005 0 1 0 32.201172 35.75 C 31.898542 36.2742 31.942085 36.933863 32.310547 37.414062 C 32.679001 37.893963 33.304031 38.105819 33.888672 37.949219 C 34.473303 37.792519 34.907328 37.295413 34.986328 36.695312 C 35.065334 36.095313 34.774171 35.503772 34.25 35.201172 A 0.50005 0.50005 0 0 0 33.976562 35.130859 z M 30.449219 39 A 0.50005 0.50005 0 0 0 30.5 40 L 32.5 40 A 0.50005 0.50005 0 1 0 32.5 39 L 30.5 39 A 0.50005 0.50005 0 0 0 30.449219 39 z M 3.5 42 C 3.7821 42 4 42.218 4 42.5 C 4 42.7821 3.7821 43 3.5 43 C 3.2179 43 3 42.7821 3 42.5 C 3 42.218 3.2179 42 3.5 42 z M 59.5 42 C 59.7821 42 60 42.218 60 42.5 C 60 42.7821 59.7821 43 59.5 43 C 59.2179 43 59 42.7821 59 42.5 C 59 42.218 59.2179 42 59.5 42 z M 9.5 47 C 9.7821 47 10 47.218 10 47.5 C 10 47.7821 9.7821 48 9.5 48 C 9.2179 48 9 47.7821 9 47.5 C 9 47.218 9.2179 47 9.5 47 z M 53.5 47 C 53.7821 47 54 47.218 54 47.5 C 54 47.7821 53.7821 48 53.5 48 C 53.2179 48 53 47.7821 53 47.5 C 53 47.218 53.2179 47 53.5 47 z M 14 48 L 26.041016 48 C 26.116928 48.462953 26.296932 48.884717 26.5625 49.224609 C 26.921209 49.683809 27.457939 50 28.0625 50 L 34.9375 50 C 35.542031 50 36.078782 49.683809 36.4375 49.224609 C 36.703075 48.884717 36.883075 48.462953 36.958984 48 L 49.007812 48 L 49.007812 48.833984 C 49.007812 50.058484 48.102334 51 46.994141 51 L 16.013672 51 C 14.905599 51 14 50.058384 14 48.833984 L 14 48 z M 27.158203 48 L 35.841797 48 C 35.779487 48.2112 35.763587 48.464475 35.650391 48.609375 C 35.444259 48.873175 35.198569 49 34.9375 49 L 28.0625 49 C 27.801361 49 27.555726 48.873175 27.349609 48.609375 C 27.236424 48.464475 27.220506 48.2112 27.158203 48 z " color="#000" font-family="sans-serif" font-weight="400" overflow="visible" style="line-height:normal;text-indent:0;text-align:start;text-decoration-line:none;text-decoration-style:solid;text-decoration-color:#000;text-transform:none;block-progression:tb;isolation:auto;mix-blend-mode:normal"/></svg>